<svg class="logo" xmlns="http://www.w3.org/2000/svg" viewBox="0 0 278 40">
  <g class="logo__content">
    <path d="M14.05,31.86C.91,31.86,0,26.68,0,24.04v-.12H11.33c.12,.7,.5,1.98,3.67,1.98h.08c2.84,0,3.63-.74,3.63-1.69,0-1.03-.66-1.48-3.87-1.69l-3.62-.29C2.35,21.78,.45,18.53,.45,14.94v-.25c0-3.79,2.72-6.83,13.76-6.83h.95c12.15,0,14.17,3.71,14.17,7.33v.04h-10.96c-.21-.66-.58-1.81-3.58-1.81h-.21c-2.76,0-3.46,.58-3.46,1.56s.82,1.52,3.67,1.65l3.71,.12c9.1,.45,11.21,3.05,11.21,7.04v.37c0,3.75-1.77,7.7-14.5,7.7h-1.15Z"/>
    <path d="M30.85,31.33V.16h10.59V16.96l6.71-8.6h11.62l-8.57,10.29,9.6,12.68h-11.99l-7.37-10.04v10.04h-10.59Z"/>
    <path d="M73.37,31.95c-14.13,0-15.74-7.62-15.74-11.73v-.58c0-4.03,1.65-11.9,15.7-11.9h1.44c14.58,0,15.74,7.86,15.74,11.86v.66c0,4.08-1.11,11.69-15.78,11.69h-1.36Zm.87-6.92c4.12,0,5.23-3.17,5.23-5.27,0-2.31-1.11-5.23-5.23-5.23h-.33c-4.24,0-5.23,2.92-5.23,5.23,0,2.14,.95,5.27,5.23,5.27h.33Z"/>
    <path d="M91.62,31.33V8.36h10.51v3.75c.78-1.23,3.01-4.28,8.12-4.28h.33c6.34,0,8.16,4.49,8.16,9.26,0,1.52-.08,2.47-.12,3.33h-10.55v-1.11c0-2.51-.74-3.79-2.76-3.79s-3.09,1.32-3.09,3.95v11.86h-10.59Z"/>
    <path d="M119.67,8.36h10.59v2.8c1.11-1.11,3.87-3.25,9.27-3.25h.33c9.23,0,12.07,5.72,12.07,11.49v.7c0,5.31-2.92,11.69-12.48,11.69h-.37c-5.31,0-7.87-2.18-8.82-3v10.33h-10.59V8.36Zm21.18,11.4c0-2.14-1.15-4.98-5.19-4.98h-.17c-4.08,0-5.27,2.84-5.27,4.94v.25c0,2.22,1.2,4.9,5.27,4.9h.17c4.04,0,5.19-2.76,5.19-4.9v-.21Z"/>
    <path d="M163.67,6.22h-10.59V0h10.59V6.22Zm0,25.11h-10.59V8.36h10.59V31.33Z"/>
    <path d="M262.12,31.86c-13.14,0-14.05-5.19-14.05-7.82v-.12h11.33c.12,.7,.49,1.98,3.67,1.98h.08c2.84,0,3.62-.74,3.62-1.69,0-1.03-.66-1.48-3.87-1.69l-3.63-.29c-8.86-.45-10.75-3.71-10.75-7.29v-.25c0-3.79,2.72-6.83,13.76-6.83h.95c12.15,0,14.17,3.71,14.17,7.33v.04h-10.96c-.21-.66-.58-1.81-3.58-1.81h-.21c-2.76,0-3.46,.58-3.46,1.56s.82,1.52,3.67,1.65l3.71,.12c9.1,.45,11.21,3.05,11.21,7.04v.37c0,3.75-1.77,7.7-14.5,7.7h-1.15Z"/>
  </g>
  <g class="logo__accent">
    <path d="M186.7,.16c16.36,0,19.73,8.81,19.73,15.15v1.24c0,6.26-3.34,15.31-19.73,15.31h-1.85c-16.31,0-19.73-9.06-19.73-15.31v-1.24c0-6.38,3.46-15.15,19.73-15.15h1.85Zm8.12,15.48c0-2.96-1.32-7.16-9.06-7.16s-9.02,4.2-9.02,7.16v.45c0,2.96,1.36,7.33,9.06,7.33s9.02-4.36,9.02-7.33v-.45Z"/>
    <path d="M219.12,13.67V31.33h-10.83V.7h11.33l16.52,17.13V.7h10.83V31.33h-10.67l-17.18-17.66Z"/>
  </g>
</svg>