<?xml version="1.0" encoding="UTF-8"?>
<svg id="_Слой_1" data-name="Слой 1" xmlns="http://www.w3.org/2000/svg" viewBox="0 0 168 42">
  <defs>
    <style>
      .cls-1 {
        fill: red;
      }
    </style>
  </defs>
  <path d="M29.5,.75h.23c0,.09-.08,.14-.23,.14l.07,.16v.09c-1.6,1.4-3.09,2.57-4.46,3.53-.55,.55-1.37,1.22-2.46,2.01l-4,3.46c0,.06-1.62,1.52-4.84,4.39-1.19,1.11-1.78,1.7-1.78,1.77h.09c5.52-1.28,9.83-1.92,12.91-1.92,.36,.03,.54,.1,.54,.23,0,.15-.28,.23-.84,.23v.09h1c.1,0,.16,.06,.16,.14v.31s-.03,.07-.09,.07l.09,.16v.09c-.28,.27-.92,1.06-1.92,2.38-4.76,4.64-8.42,8.46-11.01,11.46l-2.46,2.76c-.67,.99-1.29,1.81-1.84,2.46h-.09v-.07l.23-.47h-.07c0,.08-.1,.19-.31,.31v-.16h-.07v.31c-.09,0-.65,.56-1.69,1.69h-.07l-.16-.09,.07,.16v.16c-.08,0-.2,.15-.38,.46l-.38,.24v-.09l.24-.31v-.07h-.09c0,.11-.31,.5-.93,1.15h.16v.09c-.08,0-.18,.1-.3,.3h-.09c.06-.32,.24-.65,.54-1l-.16-.07c0,.07-.08,.14-.23,.23v-.09c.1-.16,.16-.29,.16-.38l-.16-.07c0,.21-.1,.31-.31,.31l-.38-.09c0,.22-.31,.58-.91,1.08,0,.15-.47,.72-1.4,1.69,0,.05-.26,.27-.77,.68,0-.1-.05-.16-.16-.16-.03,.16-.13,.27-.3,.31v-.07c.95-1.47,3.13-4.04,6.54-7.7,.52-.83,3.19-3.87,8-9.14,3.03-3.22,5.23-5.5,6.61-6.85h-.14c-.86,0-3.07,.33-6.62,1v.07l-.16-.07h-.07v.16l-.38-.09c0,.1-.05,.16-.16,.16h-.16l-.16-.07c0,.14-1.2,.35-3.6,.61-.5,.15-1.48,.36-2.93,.61,0-.08-.1-.18-.3-.3,.09-.06,.17-.09,.23-.09v-.07c-.15,0-.23-.05-.23-.16v-.38c.02-.08,.68-.74,1.99-1.99v-.08c-.34,.17-.8,.53-1.38,1.08h-.16l.16-.23c-.1,0-.16-.05-.16-.16,.91-.99,2.35-2.37,4.31-4.16,2.7-2.63,4.95-4.55,6.76-5.77,.99-.59,2.76-1.9,5.31-3.93,.76-.66,1.19-1,1.3-1,.09,.06,.2,.09,.31,.09,0-.09,.18-.25,.54-.47h.16c.07,0,.14,.08,.23,.23v.09l-.93,.84h.09s.09-.05,.23-.16v.09c-.06,.09-.09,.17-.09,.23l.24-.16h.14c.06,0,.09,.03,.09,.09,.09-.06,.17-.09,.23-.09v-.07h-.16v-.16h.09l.14,.07,2.93-2.06ZM5.27,37.74v.07c0,.1-.05,.16-.16,.16v-.07c.02-.1,.07-.16,.16-.16Zm.38-.38v.07c0,.1-.05,.16-.16,.16h-.07c0-.08,.08-.15,.23-.23Zm1.54-2.92l-.07,.14v.09h.07c0-.06,.02-.13,.07-.23h-.07Zm.16-16.08h.07c.08,0,.15-.08,.23-.24v-.07c-.08,0-.18,.1-.3,.31Zm2.15-1.47h.16c.13,0,1.26-1.1,3.39-3.3h-.09c-.08,0-.36,.28-.84,.84-1.17,.91-2.04,1.73-2.62,2.46Zm14.31-1.99v.07h.3v-.07h-.3Zm1.22,.46v.07c.02,.1,.07,.16,.16,.16l.07-.16s-.12-.02-.23-.07Z"/>
  <path d="M47.66,5.61v.07s.06-.02,.06-.07c.86,.05,1.5,.07,1.89,.07h.77v.21c-.54,.05-.98,.12-1.32,.21v-.07l-2.66,.56v.07h.21c2.01-.28,3.25-.49,3.7-.63l.07,.14v.06c-.61,.24-2.31,.52-5.1,.84v.07h1.47v.14h-.07c-1.34,0-3.13,.44-5.37,1.32v.07h.07c.33-.14,1.21-.45,2.65-.91v.07c-.07,.08-1.41,.66-4.04,1.75-.38,.03-1.57,.7-3.56,2.02-1.65,1.16-3.14,2.46-4.46,3.9l-1.82,2.58c0,.1-.23,.49-.7,1.18-.6,1.22-1.27,2.77-2.02,4.67l-.56,2.24c0,.2,.07,.46,.21,.77,0,.07-.1,.19-.29,.36,0,1.02,.91,1.92,2.72,2.72,1.86,0,3.7-.86,5.51-2.59,.1,0,1.45-1.25,4.04-3.76h.14c-.16,.38-.79,1.1-1.88,2.16v.14c.09,0,.88-.72,2.36-2.16l2.31-1.95h.07v.13c-.07,.17-.44,.57-1.12,1.2-.22,.39-.61,.87-1.18,1.45h.14c.02-.16,.48-.58,1.4-1.25,.28-.32,.44-.48,.48-.48,0,.05,.02,.07,.07,.07,0,.1-.44,.63-1.32,1.61,0,.13-.44,.66-1.32,1.59,0,.26-1.14,1.4-3.42,3.42-2.53,1.96-4.56,2.93-6.07,2.93-2.15,0-3.66-1.28-4.54-3.83-.18-.84-.29-1.66-.34-2.45,0-1.96,.67-4.12,2.02-6.48,.05-.09,.07-.17,.07-.21l-.21,.14s-.02-.12-.07-.21c1.15-2.01,2.82-4.22,5.03-6.62l2.72-2.31c.11,0,.6-.3,1.47-.91l2.58-1.59v.07s-.11,.14-.34,.34h.13c2.49-1.3,4.28-1.95,5.37-1.95,0-.18,1.35-.48,4.06-.91ZM25.76,29.46v.14c.53,.83,.83,1.24,.9,1.25,0-.1,.02-.19,.07-.27-.3-.08-.6-.45-.9-1.12h-.07Zm.27-6.34c.05,.08,.07,.17,.07,.27h.07l.07-.34c-.09,.05-.17,.07-.21,.07Zm1.88-1.4c.22-.23,.59-.97,1.12-2.24,.1-.05,.27-.35,.48-.91,.09,0,.37-.45,.84-1.32,.09,0,.17-.14,.21-.41-1.4,1.54-2.28,3.17-2.66,4.88Zm0,9.75v.07c.43,.19,.92,.33,1.47,.43h.14v-.07c-.15,0-.66-.14-1.54-.43h-.07Zm.14-1.95v.07c.53,.42,.88,.63,1.05,.63h.07v-.07c-.46-.14-.83-.35-1.12-.63Zm2.65-12.9l-.06,.14v.14h.06c0-.1,.02-.2,.07-.28h-.07Zm.77,15.14v.07h.07c.77-.34,1.49-.69,2.16-1.05v-.06h-.14c-1.3,.69-2,1.04-2.09,1.04Zm.7-17.16h.07l1.61-1.59c-.12,0-.68,.53-1.68,1.59Zm5.99-5.15v.07h.07c.24-.14,.4-.21,.5-.21v-.07h-.07c-.24,.14-.4,.21-.5,.21Zm1.27-1.05v.07h.07c.09-.05,.15-.07,.2-.07v-.07h-.07c-.09,.05-.15,.07-.2,.07Zm.63-.2h.07c.23-.07,.34-.14,.34-.21h-.07c-.23,.06-.34,.13-.34,.21Zm3.49,.2c0,.11-.38,.23-1.12,.36h-.14v-.07c.74-.19,1.16-.28,1.27-.28Zm-1.12-1.25v.07h.07l3.27-.91v-.07h-.07c-.84,.19-1.94,.49-3.27,.91Zm2.38,.84v.14c-.68,.18-1.08,.27-1.2,.27,0-.1,.4-.24,1.2-.41Zm.56-.14v.14l-.36,.07v-.14l.36-.07Z"/>
  <path d="M60.2,1.52h.06c.39,0,.75,.62,1.1,1.87h.11c-.08-.35-.11-.55-.11-.6v-.28l.06-.1c.37,0,.75,1.33,1.15,4,.18,2.08,.27,3.23,.27,3.45v.44l.06,.27h-.06l.06,.11v.06s-.02,.06-.06,.06l.06,.11v.48c0,.55-.02,1.3-.06,2.25-.08,.2-.33,1.37-.77,3.52l-.33,.98s.02,.14,.06,.33c0,.1-.17,.53-.5,1.27l-1.64,3.23c-.63,1.23-1.89,2.91-3.79,5.04-2.22,1.99-3.75,3.09-4.6,3.29-.78,.4-1.48,.62-2.09,.66,0,.04-.29,.08-.87,.11-1.33,0-2.52-.69-3.57-2.08-.62-.93-.93-2.12-.93-3.57,0-2.91,.88-5.84,2.63-8.77,.57-1.11,1.7-2.61,3.39-4.5,2.19-2.17,4.21-3.74,6.04-4.71,1.21-.58,2.01-.87,2.41-.87h.23l.11,.04c0,.29-.19,.5-.56,.61-.99,.63-1.48,.97-1.48,1.04-.1,.2-.84,.8-2.19,1.81,0,.06-.9,1.01-2.69,2.85-2.05,2.39-3.31,4.1-3.77,5.11-1.06,1.7-1.59,3.1-1.59,4.21-.03,0-.1,.62-.21,1.87v2.04l.1,.16v.27c0,.77,.44,1.3,1.32,1.59l.98,.38s.06-.02,.06-.06c.29,.08,.53,.11,.71,.11,.75,0,1.52-.22,2.31-.65,2.98-1.71,5.32-4.23,7.02-7.57,1.1-1.66,1.92-3.78,2.46-6.36,.14-.67,.21-1.26,.21-1.75v-.65l-.06-.33c.04-.07,.06-.16,.06-.27v-.38h-.06c-.15,2.26-.29,3.55-.43,3.89,0,.29-.04,.44-.11,.44,0,.04,.02,.06,.06,.06-.6,2.22-1.48,4.16-2.63,5.81-.87,1.32-1.73,2.45-2.58,3.4-.12,.07-.51,.43-1.15,1.1h-.06v-.06c2.88-3.54,4.7-6.43,5.48-8.67,.77-2.37,1.15-4.49,1.15-6.35v-1.38c0-.9-.05-1.87-.16-2.9,0-.04,.02-.06,.06-.06-.11-2.37-.3-3.82-.56-4.33-.08-.08-.17-.35-.27-.83,.06-.14,.11-.21,.16-.21Zm-14.85,19.02l.04,.11c-.36,.91-.56,1.37-.6,1.37,.04,.08,.06,.13,.06,.17-.1,.28-.19,.48-.27,.6l.06,.11c-.11,.37-.24,1.06-.38,2.08h.1c0-.17,.19-.86,.56-2.08,0-.69,.42-1.96,1.25-3.79h-.04c-.17,.13-.36,.47-.56,1l-.21,.43Zm.16,9.44v.11c.08,0,.22,.14,.44,.43,.63,.45,1.19,.67,1.69,.67,.04,0,.19,.01,.44,.04h.06v-.04c-.98-.19-1.75-.46-2.31-.83-.17-.26-.28-.38-.33-.38Zm.11-.77c0,.25,.33,.54,.98,.88h.06s-.35-.34-1.04-.88Zm.87,2.02v.06c.58,.26,1.24,.38,1.98,.38h.17v-.06c-.15,0-.23-.02-.23-.06-.04,0-.06,.02-.06,.06-.93-.1-1.53-.23-1.81-.38h-.06Zm2.31,.33v.06h.17l.54-.06v-.04h-.27c-.2,.03-.35,.04-.44,.04Zm.06-1.2v.06h.27l.61-.17v-.06h-.06l-.83,.17Zm3.73-1.15l-.27,.21h.06c.16-.1,.27-.16,.33-.16v-.06h-.11Zm.77-18.81v.06h.06c1.21-.63,2.08-1.14,2.63-1.54l1.48-.83v-.06h-.11c-1.43,.66-2.77,1.45-4,2.36h-.06Zm2.02,16.5v.06c.31-.12,.86-.73,1.65-1.81l.88-1.27h-.06c-.6,.9-1.42,1.91-2.48,3.02Zm2.86-3.67c0,.07-.06,.16-.17,.27v.06s.12-.09,.21-.27v-.06h-.04Zm2.35-21.06v.17c.08,.09,.11,.21,.11,.38h.11c-.05-.37-.12-.56-.23-.56Zm.88,1.92v.11c.31,2.16,.53,3.23,.65,3.23-.18-1.5-.38-2.62-.6-3.35h-.06Zm.71,6.25l-.11,1.54v.06h.06l.06-.28v-.48l.06-.33s-.02-.06-.06-.06l.06-.27v-.17h-.06Zm-.06-.83v.5h.06v-.5h-.06Z"/>
  <path d="M76.15,3.9h1.05c1.22,0,2.12,.14,2.69,.41l.11-.06c.79,.23,1.63,.79,2.52,1.69,.43,.7,.64,1.37,.64,1.99v.23c0,2.26-2.13,5.01-6.38,8.26-.92,.68-2.19,1.54-3.8,2.58l-.11-.06c0,.14-.26,.32-.77,.53-.67,.46-1.38,.83-2.11,1.11,1.74,2.36,4.02,5.25,6.85,8.67,0,.08,.24,.39,.71,.94,.3,.49,.67,1,1.11,1.51,1.52,2.15,2.47,3.58,2.86,4.29,.04,0,.06,.04,.06,.11h-.06c-.58-.47-.93-.86-1.05-1.17h-.06v.11c.14,.07,.38,.4,.7,1l.13-.06h.06c0,.31,.41,.92,1.22,1.81,0,.07,.45,.75,1.35,2.05,.04,.22,.06,.38,.06,.47h-.11l-1.24-1.64c0,.15-.14,.35-.41,.58-1.95-2.15-3.66-4.16-5.14-6.04-.85-.86-1.92-2.21-3.23-4.03-3.2-4.18-5.19-6.73-5.97-7.67h-.06c-.2,.31-.3,.56-.3,.75-.03,0-.09,.06-.17,.19l.06,.11c-.31,.75-.56,1.24-.75,1.47l.06,.11s-.28,.63-.83,1.81h-.06s-.02-.06-.06-.06v.13c.08,0,.11,.02,.11,.06-.4,1.06-.65,1.63-.75,1.69v-.11c.08-.24,.13-.36,.17-.36-.04-.08-.06-.13-.06-.17h-.06c-.18,.63-.55,1.56-1.11,2.8h-.36s.02-.06,.06-.06c0-.15-.12-.25-.36-.3,0,.09-.04,.13-.11,.13,0-.04-.02-.06-.06-.06,.39-.78,.84-1.81,1.35-3.1,.3-.59,.46-.98,.46-1.18-.15,0-.23-.06-.23-.17h-.06c-.31,.73-.53,1.31-.64,1.75h-.13c-.46-.07-.7-.18-.7-.34,.39-.85,.58-1.34,.58-1.47-.08-.09-.11-.15-.11-.17,1.6-3.83,3.46-7.94,5.57-12.36,.71-1.48,1.16-2.32,1.34-2.52h.06l.13,.41,.11-.06s.08,.04,.17,.11c.37-.76,.63-1.15,.77-1.17,.11,.23,.17,.36,.17,.4-.1,.26-.27,.61-.53,1.05l.11,.07c.58-1.24,.93-1.87,1.05-1.88,.24,.02,.36,.08,.36,.17v.06c-.2,.32-.3,.62-.3,.88h.06l-3.22,7.21s-.06,.02-.06,.06c.04,0,.06,.02,.06,.06-.09,.04-.26,.35-.53,.94l.06,.11-.17,.3v.11h.06c1.16-.61,4.01-2.6,8.56-5.98,1.72-1.95,2.58-3.56,2.58-4.86v-.17c0-.69-.76-1.48-2.29-2.35l-.7-.11c-.3,0-1.44,.26-3.4,.77-1.11,.19-1.78,.29-1.99,.29-.08,0-.11-.04-.11-.11,0-.07,.33-.19,1-.36v-.06c-.11,0-.17-.04-.17-.11,.64-.27,.99-.41,1.05-.41v-.06h-.06l-2.58,.83h-.06c-.09,0-.13-.04-.13-.13,1.16-.56,1.77-.87,1.82-.94h-.06c-.39,.1-1.25,.54-2.58,1.3h-.06c-.09,0-.13-.04-.13-.11,.92-.87,2.15-1.56,3.7-2.05,.32-.1,.83-.22,1.52-.36v.06c.2-.08,.61-.11,1.22-.11Zm-11.19,24.06h.13v.06l-.07,.13s.07,.02,.07,.06c-.1,0-.2,.19-.3,.58h-.06v-.19s.02-.06,.06-.06l-.06-.11v-.06c.1,0,.18-.14,.23-.41Zm3.57-6.32v.06l.36,.36v-.11s-.17-.1-.36-.3Zm.47,.53v.11s.08,.04,.17,.13v-.07c-.08,0-.11-.06-.11-.17h-.06Zm.53,.7c.08,.18,.16,.28,.24,.3-.08-.18-.16-.28-.24-.3Zm.64,.83v.11c.09,0,.13,.06,.13,.19h.11c-.11-.13-.17-.23-.17-.3h-.07Zm.6-3.93c0,.08-.06,.13-.19,.13v.06h.11c0-.08,.06-.11,.19-.11v-.07h-.11Zm.4,5.28v.11l.24,.17c-.12-.15-.19-.25-.19-.28h-.06Zm.36,.47v.06l.23,.23c-.08-.18-.15-.28-.23-.29Zm.36-6.39v.06h.06c.08,0,.11-.04,.11-.11v-.11c-.06,0-.11,.06-.17,.17Zm.17,6.73v.06c.12,.08,1,1.21,2.63,3.4,1.31,1.74,2.21,2.89,2.69,3.45h.11c-1.56-2.28-3.37-4.58-5.44-6.91Zm.53-20.73v.06h.06c.64-.15,1.32-.35,2.05-.58v-.06h-.06c-.2,0-.88,.19-2.05,.58Zm3.93,25.66v.06c2.32,3.22,3.66,5.03,4.03,5.44,.21,.14,.35,.3,.41,.47-.04,.08-.06,.13-.06,.17l.11-.06h.06c.28,.2,.41,.36,.41,.47h.06v-.06c-.22-.4-1.13-1.63-2.75-3.69-1.03-1.34-1.79-2.27-2.28-2.8Zm1.17-26.24v.06c.19,0,.74,.12,1.64,.36h.06v-.06c-.49-.24-.92-.36-1.28-.36h-.41Zm.58,10.01v.07l.36-.3h-.07c-.17,.08-.27,.15-.28,.23Zm.36-8.96v.06c1.32,.89,1.98,1.83,1.98,2.82-.04,.07-.06,.14-.06,.23v.11h.06c.09-.44,.13-.75,.13-.93v-.06c0-.88-.41-1.53-1.24-1.94-.22-.12-.49-.22-.81-.3h-.06Zm2.75-.23c.63,.66,.94,1.49,.94,2.46v.34c0,.79-.41,1.92-1.24,3.4-.91,1.02-1.71,1.88-2.39,2.58v.11h.06c0-.07,.31-.36,.94-.88,.45-.55,.78-.94,1-1.17,1.4-1.61,2.11-3.16,2.11-4.63,0-.91-.45-1.65-1.35-2.22h-.06Zm-.7,.75c.35,.36,.53,.6,.53,.71h.06v-.19c-.23-.31-.4-.49-.53-.53h-.06Zm.4,1.24v.06c.04,.35,.1,.53,.19,.53v-.24c0-.2-.06-.31-.19-.34Zm.3-1.47v.11c.11,.13,.17,.23,.17,.3h.06v-.06c-.09-.24-.16-.36-.23-.36Z"/>
  <path d="M95.02,.16c.09,.02,.14,.07,.14,.14v.27c0,.21-.14,.58-.41,1.12l.07,.41c-.44,.5-1.04,1.78-1.82,3.82v.07h.07v-.14h.13c.09,0,.14,.12,.14,.36h.07c.81-2.25,1.28-3.5,1.41-3.76l.4-.2h.14c.07,0,.13,.09,.2,.27-.13,.2-.67,1.61-1.62,4.24,3.13-1.35,5.67-2.02,7.62-2.02,2.66,.06,4.4,1.12,5.24,3.2,.06,.41,.1,.66,.14,.75l-.07,.14,.07,.14c0,1.31-.99,3.16-2.96,5.55-2.08,2.23-3.83,3.81-5.25,4.73-1.88,1.35-3.45,2.32-4.71,2.92-1.11,.69-2.77,1.34-4.98,1.94-.61,.05-.99,.07-1.14,.07l-.07-.14v-.13h.27v-.07l-.34-.07c-.16,.69-.29,1.04-.4,1.04,0-.05-.02-.07-.07-.07v.07l.07,.14c-.58,1.85-1.14,3.77-1.68,5.77-.2,.65-.36,.97-.47,.97l.06,.14c-.08,0-.21,.3-.4,.9l-.27,.29h-.07v-.07l.14-.48h-.14l-1.14,3.6c-.18,.83-.36,1.25-.54,1.25h-.2c-.09,0-.13-.07-.13-.21,.45-1.75,.92-3.41,1.41-5-.08,.06-.26,.48-.54,1.25-.1,.14-.17,.21-.2,.21h-.07v-.07c.72-2.33,1.08-3.56,1.08-3.69h-.2c0-.25,.11-.71,.33-1.38v-.14h-.06c0,.32-.11,.48-.34,.48l-.34-.21c.85-3.24,2.45-8.19,4.78-14.86,1.07-3.16,1.93-5.5,2.56-7.01h.06l-.06-.14,1.41-3.13h.2l.14,.07c0,.11-.48,1.3-1.42,3.55-.45,1.11-.67,1.76-.67,1.95,.18-.04,.61-.94,1.28-2.72,.06,0,.41-.76,1.07-2.29,.37-.69,.57-1.04,.61-1.04l.14,.07c.56-1.46,1.01-2.41,1.34-2.85Zm-11.11,31.68s-.02,.11-.07,.2h.14v-.2h-.07Zm.54-4.31c0,.09-.07,.29-.2,.63l.13,.07c0-.12,.07-.36,.2-.7h-.13Zm3.36-4.03l.14,.07c.09,0,.65-.28,1.68-.83h.07v-.07h-.07l-1.68,.56c0,.07-.05,.16-.14,.27Zm.34-6.52v.07h.07c0-.08,.04-.17,.13-.29h-.07c-.09,0-.13,.07-.13,.21Zm5.11-7.09c0,.28-.18,.41-.54,.41v-.06c-.09,0-.13,.05-.13,.13,.05,0,.07,.02,.07,.07-.23,0-.43,.39-.61,1.18-1.89,4.95-3.12,8.42-3.7,10.42h.13c2.42-.89,5.72-2.74,9.9-5.55,2.56-2,4.18-4.04,4.86-6.12v-.56c0-.85-.74-1.5-2.22-1.94-.43-.09-.76-.14-1.01-.14h-.74c-1.33,0-3.21,.72-5.65,2.15h-.34Zm-4.78,6.11l-.13,.5h.13l.07-.43v-.07h-.07Zm.07-.13v.07h.07c.27-.66,.4-1.04,.4-1.12-.06,0-.21,.35-.47,1.05Zm.81-2.16c-.13,.44-.25,.74-.34,.91v.14h.07c0-.11,.11-.44,.34-.98v-.07h-.07Zm.07-1.79v.2h.06s.02-.11,.07-.2h-.13Zm.06,1.38c0,.1-.02,.2-.06,.28v.07h.06c0-.06,.02-.13,.07-.21v-.14h-.07Zm.88-3.96l-.81,2.29v.07h.07l.87-2.29-.13-.07Zm-.67,3.55c0,.08-.05,.17-.14,.27h.14s.02-.11,.06-.2v-.07h-.06Zm.13-.34l-.07,.27c.09,0,.14-.07,.14-.21v-.06h-.07Zm3.03-3.13v.07c.52-.27,.81-.41,.87-.41v-.07h-.13c-.49,.2-.74,.34-.74,.41Zm.13,.41v.07h.07c.09-.05,.15-.07,.2-.07v-.07h-.07c-.09,.05-.15,.07-.2,.07Zm.54-.34c0,.1-.04,.14-.13,.14v.07h.13c0-.09,.07-.14,.2-.14v-.07h-.2Zm8.42-3.06v.07h.27v-.07h-.27Zm.2,1.32v.07c.35,.1,.89,.63,1.62,1.59l.06-.41c-.86-.84-1.38-1.25-1.54-1.25h-.14Zm.14-1.25v.07l.4,.07h.14v-.07l-.41-.07h-.13Zm.94,.97c0,.09,.19,.23,.54,.43v-.14c-.08-.19-.23-.29-.47-.29h-.07Zm.54-.9v.07c0,.22,.29,.4,.87,.56v-.14c0-.1-.29-.27-.87-.48Zm.67,1.25c.05,.08,.09,.29,.13,.63h.07c0-.11,.02-.3,.07-.56l-.14-.07h-.13Zm.34-1.59v.06c.71,.85,1.12,1.47,1.21,1.88h.06v-.34c0-.57-.42-1.1-1.27-1.59Zm.33,4.86s-.02,.12-.06,.21h.06l.07-.14v-.07h-.07Zm.27-.56s-.02,.12-.07,.21v.07h.07c0-.06,.02-.13,.07-.21v-.07h-.07Zm.41-.9c0,.1-.02,.19-.07,.27v.07h.07s.02-.12,.06-.21v-.13h-.06Zm.2-.77v.27h.06v-.27h-.06Z"/>
  <path d="M111.95,10.58h.09c.06,0,.09,.04,.09,.13-.13,.54-.37,1.06-.7,1.55-.03,.09-.33,.7-.9,1.81,0,.08-.08,.37-.23,.87,0,.21-.05,.39-.14,.56-1.05,2.54-1.65,4.02-1.78,4.44-.14,.26-.3,.62-.47,1.1l-.63,1.51,.03,.07c-.06,.05-.2,.37-.44,.97-.05,.08-.11,.25-.2,.51-.04,0-.08,.16-.11,.46-.08,0-.14,.12-.2,.36l-.17,.48s-.1,.15-.17,.46c-.06,0-.15,.21-.27,.64-.17,.39-.39,.97-.65,1.74,.02,0,.03,0,.03,.03-.15,.25-.42,.94-.81,2.06-.05,.04-.11,.23-.2,.58-.05,.1-.09,.16-.11,.16l.03,.07c-.13,.38-.23,.6-.28,.67l.03,.07v.03c-.17,.44-.26,.67-.26,.71h-.04l.04,.07c-.11,.14-.19,.32-.24,.54h-.09v.07h.06v.06c-.07,0-.12,.14-.17,.43l-.09,.09s0-.03-.03-.03l-.14,.2v.03h-.09s0-.05-.03-.1c0-.26,.29-1.19,.87-2.8l.48-1.35c.25-.72,.56-1.57,.95-2.55,.02,0,.05-.09,.09-.28h-.11c0,.15-.05,.23-.14,.23l.03,.06c-.1,.41-.19,.61-.27,.61-.07,.36-.15,.6-.26,.71,.02,0,.03,0,.03,.03l-.06,.04,.03,.06c-.3,.71-.64,1.63-1.01,2.75-.11,.41-.2,.61-.26,.61l-.14,.06c-.11-.08-.17-.14-.17-.19,.04-.2,.06-.31,.06-.33l-.14,.03h-.03s-.06-.03-.09-.1l.6-1.94c.06-.31,.24-.88,.56-1.71v-.03h-.03c0,.12-.1,.23-.3,.33-.19-.07-.28-.13-.28-.2v-.1c.05-.07,.12-.32,.23-.77,.08-.12,.11-.24,.11-.36-.05,0-.09-.04-.14-.13,.06-.29,.19-.69,.38-1.2,.15-.51,.5-1.46,1.04-2.83,.4-1.09,.82-2.16,1.27-3.22,.14-.48,.35-1.01,.63-1.58,.46-1.19,.9-2.15,1.3-2.88h.14c.07,0,.16,.05,.27,.16,.1-.2,.27-.56,.48-1.1,.03,0,.09-.09,.17-.28,.19,0,.28,.09,.28,.26h.06c.15-.46,.38-.88,.7-1.25,.09,0,.16,.02,.23,.06,0-.03,.03-.06,.09-.1h.14l.06,.04s.03-.07,.07-.07h.2s.2-.43,.6-1.15c.13-.32,.32-.63,.56-.91Zm-5.65,13.2l-.06,.19s.06-.05,.09-.16v-.03h-.03Zm.03-.07v.03h.03s.03-.11,.09-.19v-.04s-.07,.07-.11,.2Zm.2-.54v.09s.06-.02,.06-.06v-.03h-.06Zm.14-.33s-.02,.07-.06,.16v.07h.03c0-.06,.02-.12,.06-.2v-.03h-.03Zm.14-.38v.09h.03l.21-.57s-.12,.16-.24,.48Zm.27-.58v.03h.03l.06-.23v-.03s-.07,.08-.09,.23Zm.17-3.52c-.03,.13-.08,.2-.14,.2v.06s.02,.07,.06,.07c0-.07,.05-.18,.14-.33h-.06Zm0,3.06v.03h.03s.02-.07,.06-.13v-.03s-.08,.04-.09,.13Zm.23-.67v.13h.03s0-.06,.03-.1l-.06-.03Zm.06-.13v.13h.03l.03-.13h-.06Zm.03-2.98v.07s.06-.03,.09-.1v-.07s-.06,.03-.09,.1Zm.09-.23s.03,.07,.06,.07c0-.04,.02-.08,.06-.13v-.07c-.05,.08-.09,.13-.11,.13Zm.14,2.65v.03s.06-.02,.06-.06v-.03s-.06,.02-.06,.06Zm.06-3.06v.06s.06-.02,.06-.06v-.07s-.06,.03-.06,.07Zm0,2.93v.03h.03c.02-.08,.03-.12,.03-.13-.04,0-.06,.03-.06,.1Zm.11-.33l-.03,.13h.06v-.13h-.03Zm0-2.76v.03h.03s.02-.12,.06-.26c-.04,0-.07,.08-.09,.23Zm.06,2.61s0,.05-.03,.1v.03h.03s0-.05,.03-.1v-.03h-.03Zm.14-3.19l-.03,.13s.06-.03,.06-.1v-.03h-.03Zm0,2.83s0,.06-.03,.1h.06v-.1h-.03Zm.3-3.45v.1h.03s0-.06,.03-.1h-.06Z"/>
  <path class="cls-1" d="M127.88,1.52h.06c.39,0,.75,.62,1.1,1.87h.11c-.08-.35-.11-.55-.11-.6v-.28l.06-.1c.37,0,.75,1.33,1.15,4,.18,2.08,.27,3.23,.27,3.45v.44l.06,.27h-.06l.06,.11v.06s-.02,.06-.06,.06l.06,.11v.48c0,.55-.02,1.3-.06,2.25-.08,.2-.33,1.37-.77,3.52l-.33,.98s.02,.14,.06,.33c0,.1-.17,.53-.5,1.27l-1.64,3.23c-.63,1.23-1.89,2.91-3.79,5.04-2.22,1.99-3.75,3.09-4.6,3.29-.78,.4-1.48,.62-2.09,.66,0,.04-.29,.08-.87,.11-1.33,0-2.52-.69-3.57-2.08-.62-.93-.93-2.12-.93-3.57,0-2.91,.88-5.84,2.63-8.77,.57-1.11,1.7-2.61,3.39-4.5,2.19-2.17,4.21-3.74,6.04-4.71,1.21-.58,2.01-.87,2.41-.87h.23l.11,.04c0,.29-.19,.5-.56,.61-.99,.63-1.48,.97-1.48,1.04-.1,.2-.84,.8-2.19,1.81,0,.06-.9,1.01-2.69,2.85-2.05,2.39-3.31,4.1-3.77,5.11-1.06,1.7-1.59,3.1-1.59,4.21-.03,0-.1,.62-.21,1.87v2.04l.1,.16v.27c0,.77,.44,1.3,1.32,1.59l.98,.38s.06-.02,.06-.06c.29,.08,.53,.11,.71,.11,.75,0,1.52-.22,2.31-.65,2.98-1.71,5.32-4.23,7.02-7.57,1.1-1.66,1.92-3.78,2.46-6.36,.14-.67,.21-1.26,.21-1.75v-.65l-.06-.33c.04-.07,.06-.16,.06-.27v-.38h-.06c-.15,2.26-.29,3.55-.43,3.89,0,.29-.04,.44-.11,.44,0,.04,.02,.06,.06,.06-.6,2.22-1.48,4.16-2.63,5.81-.87,1.32-1.73,2.45-2.58,3.4-.12,.07-.51,.43-1.15,1.1h-.06v-.06c2.88-3.54,4.7-6.43,5.48-8.67,.77-2.37,1.15-4.49,1.15-6.35v-1.38c0-.9-.05-1.87-.16-2.9,0-.04,.02-.06,.06-.06-.11-2.37-.3-3.82-.56-4.33-.08-.08-.17-.35-.27-.83,.06-.14,.11-.21,.16-.21Zm-14.85,19.02l.04,.11c-.36,.91-.56,1.37-.6,1.37,.04,.08,.06,.13,.06,.17-.1,.28-.19,.48-.27,.6l.06,.11c-.11,.37-.24,1.06-.38,2.08h.1c0-.17,.19-.86,.56-2.08,0-.69,.42-1.96,1.25-3.79h-.04c-.17,.13-.36,.47-.56,1l-.21,.43Zm.16,9.44v.11c.08,0,.22,.14,.44,.43,.63,.45,1.19,.67,1.69,.67,.04,0,.19,.01,.44,.04h.06v-.04c-.98-.19-1.75-.46-2.31-.83-.17-.26-.28-.38-.33-.38Zm.11-.77c0,.25,.33,.54,.98,.88h.06s-.35-.34-1.04-.88Zm.87,2.02v.06c.58,.26,1.24,.38,1.98,.38h.17v-.06c-.15,0-.23-.02-.23-.06-.04,0-.06,.02-.06,.06-.93-.1-1.53-.23-1.81-.38h-.06Zm2.31,.33v.06h.17l.54-.06v-.04h-.27c-.2,.03-.35,.04-.44,.04Zm.06-1.2v.06h.27l.61-.17v-.06h-.06l-.83,.17Zm3.73-1.15l-.27,.21h.06c.16-.1,.27-.16,.33-.16v-.06h-.11Zm.77-18.81v.06h.06c1.21-.63,2.08-1.14,2.63-1.54l1.48-.83v-.06h-.11c-1.43,.66-2.77,1.45-4,2.36h-.06Zm2.02,16.5v.06c.31-.12,.86-.73,1.65-1.81l.88-1.27h-.06c-.6,.9-1.42,1.91-2.48,3.02Zm2.86-3.67c0,.07-.06,.16-.17,.27v.06s.12-.09,.21-.27v-.06h-.04Zm2.35-21.06v.17c.08,.09,.11,.21,.11,.38h.11c-.05-.37-.12-.56-.23-.56Zm.88,1.92v.11c.31,2.16,.53,3.23,.65,3.23-.18-1.5-.38-2.62-.6-3.35h-.06Zm.71,6.25l-.11,1.54v.06h.06l.06-.28v-.48l.06-.33s-.02-.06-.06-.06l.06-.27v-.17h-.06Zm-.06-.83v.5h.06v-.5h-.06Z"/>
  <path class="cls-1" d="M151.32,1.52h.14l-.06,.14v.06h.06v-.14h.14v.14l.08,.42c-2.45,5.21-4.19,9.11-5.23,11.68v.08h.06c.02-.2,.29-.73,.82-1.58h.08v.06c-.3,.67-.6,1.25-.9,1.72l.08,.14c-.24,.28-.35,.44-.35,.48h.08c-1.07,2.59-1.85,4.33-2.34,5.23l.08,.14-3.72,9.83c-.08,.18-.24,.27-.48,.27-.08,0-.17-.13-.28-.4-.08,0-.24,.14-.48,.4h-.13c-.13,0-.32-1.05-.56-3.16-.14-.33-.2-.67-.2-1.02v-.42c-.17,0-.28-.27-.34-.82h-.14v.08h.14c0,.15-.02,.27-.08,.34l.21,2.06h-.21c-.11,0-.29-1.19-.54-3.58l-1.1-7.77h-.14c-2.34,6.96-3.78,11.31-4.33,13.06-.83,2.71-1.33,4.18-1.52,4.4h-.06l-.14-.06c-1.28,4.18-2.2,6.77-2.75,7.77l-.28,.06-.08-.14c.37-1.04,.6-1.73,.7-2.06h-.08l-.13,.08c0-.09-.05-.14-.14-.14,0,.43-.21,.8-.62,1.1h-.08c.69-3.18,1.4-6.02,2.14-8.53,.08-.13,.44-1.25,1.1-3.37-.12,0-.19-.09-.21-.28,.28-.63,.49-1.18,.62-1.65l-.06-.14c2.02-6.05,3.56-10.06,4.61-12.04l.14-.06,.13,.06c.18-.51,.43-.97,.76-1.37,.32-1.05,.69-1.58,1.1-1.58,.32,.45,.48,.88,.48,1.3,.32,0,.48,.55,.48,1.65,0,.33,.37,2.55,1.1,6.67h-.06l.89,5.09h.08c0-.24,1.08-2.92,3.23-8.04,1.7-4.44,3.62-8.77,5.77-13l.14-.08c0,.05,.03,.08,.08,.08-.11,.62-.71,2.06-1.8,4.33-.08,.15-.13,.27-.13,.34,.18-.18,.91-1.62,2.19-4.33,1.16-2.15,1.85-3.32,2.06-3.51Zm-23.78,36.15v.08h.06l1.58-4.81h-.06c-.14,0-.67,1.58-1.58,4.73Zm11.06-12.36v.13c0,.05,.12,.83,.35,2.34h.06v-.14c-.17-1.55-.31-2.33-.42-2.33Zm.42,2.61v.06c.04,.61,.11,1.11,.2,1.52h.08l.06-.34c0-.1-.09-.51-.28-1.24h-.06Z"/>
  <path d="M167.66,4.44h.2c0,.08-.07,.13-.2,.13l.06,.14v.08c-1.43,1.24-2.75,2.29-3.96,3.14-.49,.49-1.22,1.08-2.19,1.78l-3.56,3.08c0,.05-1.44,1.35-4.3,3.9-1.05,.99-1.58,1.51-1.58,1.57h.08c4.91-1.14,8.74-1.71,11.48-1.71,.32,.03,.48,.09,.48,.2,0,.14-.25,.2-.75,.2v.08h.89c.09,0,.14,.05,.14,.13v.28s-.03,.06-.08,.06l.08,.14v.08c-.25,.24-.81,.94-1.71,2.11-4.23,4.13-7.49,7.52-9.78,10.19l-2.19,2.46c-.6,.88-1.14,1.61-1.63,2.19h-.08v-.06l.2-.42h-.06c0,.08-.09,.17-.28,.28v-.14h-.06v.28c-.08,0-.58,.5-1.51,1.51h-.06l-.14-.08,.06,.14v.14c-.07,0-.18,.13-.34,.41l-.34,.21v-.08l.21-.28v-.06h-.08c0,.1-.27,.44-.82,1.02h.14v.08c-.07,0-.16,.09-.27,.27h-.08c.05-.29,.21-.58,.48-.89l-.14-.06c0,.06-.07,.13-.2,.2v-.08c.09-.14,.14-.26,.14-.34l-.14-.06c0,.19-.09,.28-.28,.28l-.34-.08c0,.19-.28,.51-.81,.96,0,.14-.41,.64-1.24,1.51,0,.04-.23,.24-.68,.61,0-.09-.05-.14-.14-.14-.02,.14-.11,.24-.27,.28v-.06c.84-1.31,2.78-3.59,5.81-6.85,.46-.73,2.83-3.44,7.11-8.12,2.69-2.86,4.65-4.89,5.87-6.09h-.13c-.77,0-2.73,.3-5.88,.89v.06l-.14-.06h-.06v.14l-.34-.08c0,.09-.05,.14-.14,.14h-.14l-.14-.06c0,.13-1.07,.31-3.2,.54-.45,.14-1.32,.32-2.61,.54,0-.07-.09-.16-.27-.27,.08-.05,.15-.08,.2-.08v-.06c-.13,0-.2-.05-.2-.14v-.34c.02-.07,.61-.66,1.77-1.77v-.08c-.3,.15-.71,.47-1.23,.96h-.14l.14-.2c-.09,0-.14-.05-.14-.14,.81-.88,2.09-2.11,3.83-3.7,2.4-2.34,4.4-4.05,6.01-5.13,.88-.52,2.45-1.69,4.72-3.49,.67-.59,1.06-.89,1.15-.89,.08,.05,.18,.08,.28,.08,0-.08,.16-.22,.48-.42h.14c.06,0,.13,.07,.2,.2v.08l-.82,.75h.08s.08-.05,.2-.14v.08c-.05,.08-.08,.15-.08,.2l.22-.14h.13c.05,0,.08,.02,.08,.08,.08-.05,.15-.08,.2-.08v-.06h-.14v-.14h.08l.13,.06,2.61-1.83Zm-21.54,32.88v.06c0,.09-.05,.14-.14,.14v-.06c.02-.09,.06-.14,.14-.14Zm.34-.34v.06c0,.09-.05,.14-.14,.14h-.06c0-.07,.07-.13,.2-.2Zm1.37-2.59l-.06,.13v.08h.06c0-.05,.02-.12,.06-.2h-.06Zm.14-14.29h.06c.07,0,.13-.07,.2-.21v-.06c-.07,0-.16,.09-.27,.28Zm1.91-1.3h.14c.12,0,1.12-.98,3.01-2.94h-.08c-.07,0-.32,.25-.75,.75-1.04,.81-1.81,1.54-2.33,2.19Zm12.72-1.77v.06h.27v-.06h-.27Zm1.09,.41v.06c.02,.09,.06,.14,.14,.14l.06-.14s-.11-.02-.2-.06Z"/>
</svg>